<svg width="1200" height="900" viewBox="0 0 1200 900" fill="none" xmlns="http://www.w3.org/2000/svg">
  <rect width="1200" height="900" rx="48" fill="#07131F"/>
  <rect x="52" y="52" width="1096" height="796" rx="40" fill="#091927" stroke="#17324A" stroke-width="2"/>
  <text x="110" y="148" fill="#F7FAFC" font-family="Arial, sans-serif" font-size="56" font-weight="700">Маршрут заявки для СТО</text>
  <text x="110" y="194" fill="#8FA9BD" font-family="Arial, sans-serif" font-size="24">Этот визуал работает лучше, чем длинный абзац про “маркетинг под ключ”</text>

  <rect x="110" y="274" width="208" height="410" rx="30" fill="#0C1B2A" stroke="#1B3A54"/>
  <text x="144" y="328" fill="#8FD6FF" font-family="Arial, sans-serif" font-size="22" font-weight="700">Шаг 1</text>
  <text x="144" y="378" fill="#F7FAFC" font-family="Arial, sans-serif" font-size="36" font-weight="700">Реклама</text>
  <text x="144" y="432" fill="#8FA9BD" font-family="Arial, sans-serif" font-size="24">Яндекс / ВК</text>
  <rect x="144" y="482" width="140" height="86" rx="24" fill="#11283B"/>
  <rect x="162" y="504" width="104" height="12" rx="6" fill="#20B5FF"/>
  <rect x="162" y="528" width="72" height="12" rx="6" fill="#35D39A"/>
  <rect x="162" y="552" width="88" height="12" rx="6" fill="#20435F"/>

  <rect x="364" y="274" width="208" height="410" rx="30" fill="#0C1B2A" stroke="#1B3A54"/>
  <text x="398" y="328" fill="#8FD6FF" font-family="Arial, sans-serif" font-size="22" font-weight="700">Шаг 2</text>
  <text x="398" y="378" fill="#F7FAFC" font-family="Arial, sans-serif" font-size="36" font-weight="700">Страница</text>
  <text x="398" y="432" fill="#8FA9BD" font-family="Arial, sans-serif" font-size="24">Оффер + квиз</text>
  <rect x="398" y="482" width="140" height="86" rx="24" fill="#11283B"/>
  <rect x="416" y="500" width="104" height="18" rx="9" fill="#17354D"/>
  <rect x="416" y="530" width="90" height="14" rx="7" fill="#20B5FF"/>
  <rect x="416" y="556" width="78" height="14" rx="7" fill="#35D39A"/>

  <rect x="618" y="274" width="208" height="410" rx="30" fill="#0C1B2A" stroke="#1B3A54"/>
  <text x="652" y="328" fill="#8FD6FF" font-family="Arial, sans-serif" font-size="22" font-weight="700">Шаг 3</text>
  <text x="652" y="378" fill="#F7FAFC" font-family="Arial, sans-serif" font-size="36" font-weight="700">Сообщение</text>
  <text x="652" y="432" fill="#8FA9BD" font-family="Arial, sans-serif" font-size="24">Клиент пишет</text>
  <rect x="652" y="482" width="140" height="100" rx="24" fill="#11283B"/>
  <rect x="670" y="508" width="92" height="12" rx="6" fill="#35D39A"/>
  <rect x="670" y="532" width="76" height="12" rx="6" fill="#203F5C"/>
  <rect x="670" y="556" width="104" height="12" rx="6" fill="#20B5FF"/>

  <rect x="872" y="274" width="208" height="410" rx="30" fill="#0C1B2A" stroke="#1B3A54"/>
  <text x="906" y="328" fill="#8FD6FF" font-family="Arial, sans-serif" font-size="22" font-weight="700">Шаг 4</text>
  <text x="906" y="378" fill="#F7FAFC" font-family="Arial, sans-serif" font-size="36" font-weight="700">Запись</text>
  <text x="906" y="432" fill="#8FA9BD" font-family="Arial, sans-serif" font-size="24">Осмотр / приезд</text>
  <rect x="906" y="482" width="140" height="100" rx="24" fill="#11283B"/>
  <rect x="924" y="506" width="104" height="54" rx="18" fill="url(#finish)"/>
  <text x="951" y="542" fill="#03131E" font-family="Arial, sans-serif" font-size="24" font-weight="800">DONE</text>

  <path d="M322 480H360" stroke="url(#flow)" stroke-width="14" stroke-linecap="round"/>
  <path d="M576 480H614" stroke="url(#flow)" stroke-width="14" stroke-linecap="round"/>
  <path d="M830 480H868" stroke="url(#flow)" stroke-width="14" stroke-linecap="round"/>

  <rect x="110" y="726" width="970" height="78" rx="22" fill="#0C1B2A" stroke="#1B3A54"/>
  <text x="146" y="775" fill="#DDE8F1" font-family="Arial, sans-serif" font-size="24">Такой блок объясняет владельцу СТО, как именно реклама превращается в запись, а не в “маркетинговую магию”.</text>

  <defs>
    <linearGradient id="flow" x1="322" y1="480" x2="868" y2="480" gradientUnits="userSpaceOnUse">
      <stop stop-color="#20B5FF"/>
      <stop offset="1" stop-color="#35D39A"/>
    </linearGradient>
    <linearGradient id="finish" x1="924" y1="506" x2="1028" y2="560" gradientUnits="userSpaceOnUse">
      <stop stop-color="#20B5FF"/>
      <stop offset="1" stop-color="#35D39A"/>
    </linearGradient>
  </defs>
</svg>
